<?xml version="1.0" encoding="UTF-8" standalone="no"?>
<svg
   width="104.75"
   height="28"
   role="img"
   aria-label="DISCOGS"
   version="1.1"
   id="svg14"
   sodipodi:docname="discogs.svg"
   xml:space="preserve"
   inkscape:version="1.2.1 (9c6d41e410, 2022-07-14, custom)"
   xmlns:inkscape="http://www.inkscape.org/namespaces/inkscape"
   xmlns:sodipodi="http://sodipodi.sourceforge.net/DTD/sodipodi-0.dtd"
   xmlns="http://www.w3.org/2000/svg"
   xmlns:svg="http://www.w3.org/2000/svg"><defs
     id="defs18" /><sodipodi:namedview
     id="namedview16"
     pagecolor="#ffffff"
     bordercolor="#000000"
     borderopacity="0.25"
     inkscape:showpageshadow="2"
     inkscape:pageopacity="0.0"
     inkscape:pagecheckerboard="0"
     inkscape:deskcolor="#d1d1d1"
     showgrid="false"
     inkscape:zoom="4.5700362"
     inkscape:cx="47.373804"
     inkscape:cy="17.177107"
     inkscape:window-width="1496"
     inkscape:window-height="1233"
     inkscape:window-x="1026"
     inkscape:window-y="0"
     inkscape:window-maximized="0"
     inkscape:current-layer="g12" /><title
     id="title2">DISCOGS</title><g
     shape-rendering="crispEdges"
     id="g6"
     style="fill:#333333;fill-opacity:1"><rect
       width="104.75"
       height="28"
       fill="#5865f2"
       id="rect4"
       style="fill:#333333;fill-opacity:1" /></g><g
     fill="#ffffff"
     text-anchor="middle"
     font-family="Verdana, Geneva, 'DejaVu Sans', sans-serif"
     text-rendering="geometricPrecision"
     font-size="100px"
     id="g12"
     style="display:inline"><g
       id="g688"
       inkscape:label="icon"
       style="display:inline"><g
         id="g499"
         transform="matrix(0.12915129,0,0,0.12915129,9,6.9999987)"
         style="display:inline;fill:#ffffff">
	<path
   d="m 34.3,54.2 c 0,-11.1 9,-20.1 20.1,-20.1 3.7,0 7.1,1 10,2.7 l 4,-7.2 c -4.1,-2.4 -8.9,-3.7 -14,-3.7 -7.8,0 -14.9,3.2 -20,8.3 -5.1,5.1 -8.3,12.2 -8.3,20 0,7.8 3.1,14.9 8.3,20 0.1,0.1 0.3,0.3 0.4,0.4 l 5.6,-6 c 0,0 0,0 0.1,0.1 C 36.6,65 34.3,59.9 34.3,54.2 Z"
   id="path495"
   style="fill:#ffffff" />
	<path
   d="m 74.4,34.4 -5.6,6 c 3.4,3.6 5.5,8.5 5.5,13.8 0,11.1 -9,20.1 -20,20.1 -3.4,0 -6.5,-0.8 -9.3,-2.3 v 0 l -4,7.2 c 4,2.1 8.5,3.3 13.3,3.3 7.8,0 14.9,-3.2 20,-8.3 5.1,-5.1 8.3,-12.2 8.3,-20 0,-7.7 -3.1,-14.7 -8.2,-19.8 z"
   id="path497"
   style="fill:#ffffff" />
</g><g
         id="g509"
         transform="matrix(0.12915129,0,0,0.12915129,9,6.9999987)"
         style="fill:#ffffff">
	<path
   d="m 28.8,81.1 5.7,-6.2 c -5.4,-5.2 -8.8,-12.5 -8.8,-20.7 0,-15.9 12.8,-28.7 28.7,-28.7 5.2,0 10,1.4 14.2,3.8 l 4,-7.4 C 67.2,18.9 61,17.1 54.4,17.1 44.2,17.1 34.9,21.3 28.2,28 21.5,34.7 17.3,44 17.3,54.2 c 0,10.2 4.1,19.5 10.9,26.2 0.1,0.2 0.3,0.5 0.6,0.7 z"
   id="path505"
   style="fill:#ffffff" />
	<path
   d="m 80.5,28 c 0,0 0,-0.1 0,0 l -5.8,6.1 C 79.8,39.3 83,46.4 83,54.2 83,70 70.2,82.9 54.3,82.9 c -4.9,0 -9.5,-1.2 -13.5,-3.4 l -4.1,7.3 c 5.3,2.9 11.3,4.5 17.7,4.5 10.2,0 19.5,-4.2 26.2,-10.9 6.7,-6.7 10.9,-16 10.9,-26.2 C 91.4,44 87.2,34.7 80.5,28 Z"
   id="path507"
   style="fill:#ffffff" />
</g><g
         id="g515"
         transform="matrix(0.12915129,0,0,0.12915129,9,6.9999987)"
         style="fill:#ffffff">
	<path
   d="m 86.8,21.7 c -0.1,-0.1 -0.2,-0.2 -0.3,-0.3 l -5.7,6.2 c 6.8,6.8 11.1,16.2 11.1,26.6 0,20.7 -16.8,37.5 -37.5,37.5 -6.5,0 -12.6,-1.6 -17.9,-4.5 l -4.1,7.3 c 6.5,3.6 14,5.6 22,5.6 12.7,0 24.2,-5.1 32.5,-13.5 8.3,-8.3 13.4,-19.8 13.4,-32.5 C 100.2,41.5 95.1,30 86.8,21.7 Z"
   id="path511"
   style="fill:#ffffff" />
	<path
   d="m 22.7,87.6 5.7,-6.2 C 21.2,74.6 16.7,64.9 16.7,54.2 c 0,-20.7 16.8,-37.5 37.5,-37.5 6.7,0 13,1.8 18.4,4.8 l 4,-7.4 C 70,10.4 62.3,8.2 54.1,8.2 41.4,8.2 29.9,13.3 21.6,21.7 13.5,30 8.4,41.5 8.4,54.2 c 0,12.7 5.2,24.2 13.5,32.5 0.2,0.3 0.5,0.6 0.8,0.9 z"
   id="path513"
   style="fill:#ffffff" />
</g><g
         id="g523"
         transform="matrix(0.12915129,0,0,0.12915129,9,6.9999987)"
         style="fill:#ffffff">
	<path
   class="st0"
   d="M 17.1,93.7"
   id="path517"
   style="fill:#ffffff" />
	<path
   class="st0"
   d="M 28.2,101.8"
   id="path519"
   style="fill:#ffffff" />
	<path
   d="m 92,15.5 -5.2,5.6 c 8.6,8.4 13.9,20.1 13.9,33.1 0,25.6 -20.8,46.4 -46.4,46.4 -8.1,0 -15.6,-2.1 -22.2,-5.7 l -3.9,6.9 c 7.7,4.2 16.6,6.7 26,6.7 29.9,0 54.2,-24.3 54.2,-54.2 0,-15.2 -6.3,-29 -16.4,-38.8 z"
   id="path521"
   style="fill:#ffffff" />
</g><path
         class="st0"
         d="m 16,7.0129138 c -0.02583,0 -0.03875,0 -0.06458,-0.012914 0.02583,0.012914 0.05166,0.012914 0.06458,0.012914 z"
         id="path493"
         style="display:inline;fill:#ffffff;stroke-width:0.129151" /><path
         d="m 14.023985,13.999999 c 0,-1.097787 0.891144,-1.98893 1.98893,-1.98893 v 0 c 1.097786,0 1.98893,0.891143 1.98893,1.98893 v 0 c 0,1.097785 -0.891144,1.98893 -1.98893,1.98893 v 0 c -1.097786,0 -1.98893,-0.891145 -1.98893,-1.98893 z m 0.09041,0 c 0,1.046125 0.852399,1.898523 1.898524,1.898523 v 0 c 1.046125,0 1.898524,-0.852398 1.898524,-1.898523 v 0 c 0,-1.046126 -0.852399,-1.898525 -1.898524,-1.898525 v 0 c -1.046125,0 -1.898524,0.852399 -1.898524,1.898525 z"
         id="path501"
         style="display:inline;fill:#ffffff;stroke-width:0.129151" /><path
         d="m 16.322878,13.999999 c 0,0.167896 -0.142066,0.309963 -0.309963,0.309963 -0.167897,0 -0.309963,-0.142067 -0.309963,-0.309963 0,-0.167897 0.142066,-0.309963 0.309963,-0.309963 0.180812,0 0.309963,0.142066 0.309963,0.309963 z"
         id="path503"
         style="display:inline;fill:#ffffff;stroke-width:0.129151" /><path
         d="M 16.116236,7.0129138 H 16 c -3.835793,0 -6.9612546,3.0996312 -7,6.9354242 v 0 0.06458 c 0,2.001845 0.8523984,3.809963 2.208487,5.088561 l 0.697417,-0.749078 c -1.162361,-1.097786 -1.885609,-2.634686 -1.885609,-4.352398 0,-3.306273 2.686347,-5.9926204 5.99262,-5.9926204 1.05904,0 2.066421,0.2841328 2.931734,0.7619925 l 0.47786,-0.8653135 C 18.440959,7.3487071 17.317343,7.0258289 16.116236,7.0129138 Z"
         id="path525"
         style="display:inline;fill:#ffffff;stroke-width:0.129151" /></g><text
       transform="scale(0.1)"
       x="623.75"
       y="175"
       textLength="607.5"
       fill="#ffffff"
       font-weight="bold"
       id="text10"
       lengthAdjust="spacing"
       style="display:inline">DISCOGS</text></g></svg>
