<?xml version="1.0" encoding="UTF-8" standalone="no"?>
<svg
   width="87.25"
   height="28"
   role="img"
   aria-label="FACER"
   version="1.1"
   id="svg14"
   sodipodi:docname="facer.svg"
   xml:space="preserve"
   inkscape:version="1.2.1 (9c6d41e410, 2022-07-14, custom)"
   xmlns:inkscape="http://www.inkscape.org/namespaces/inkscape"
   xmlns:sodipodi="http://sodipodi.sourceforge.net/DTD/sodipodi-0.dtd"
   xmlns="http://www.w3.org/2000/svg"
   xmlns:svg="http://www.w3.org/2000/svg"><defs
     id="defs18" /><sodipodi:namedview
     id="namedview16"
     pagecolor="#ffffff"
     bordercolor="#666666"
     borderopacity="1.0"
     inkscape:showpageshadow="2"
     inkscape:pageopacity="0.0"
     inkscape:pagecheckerboard="0"
     inkscape:deskcolor="#d1d1d1"
     showgrid="false"
     inkscape:zoom="8"
     inkscape:cx="54.25"
     inkscape:cy="14.5625"
     inkscape:window-width="1920"
     inkscape:window-height="1115"
     inkscape:window-x="0"
     inkscape:window-y="0"
     inkscape:window-maximized="1"
     inkscape:current-layer="svg14" /><title
     id="title2">FACER</title><g
     shape-rendering="crispEdges"
     id="g6"
     style="fill:#28aee4;fill-opacity:1"><rect
       width="87.25"
       height="28"
       fill="#f4b728"
       id="rect4"
       style="fill:#28aee4;fill-opacity:1" /></g><g
     fill="#fff"
     text-anchor="middle"
     font-family="Verdana,Geneva,DejaVu Sans,sans-serif"
     text-rendering="geometricPrecision"
     font-size="100"
     id="g12"
     style="fill:#ffffff"><text
       transform="scale(0.1)"
       x="536.25"
       y="175"
       textLength="432.5"
       fill="#333333"
       font-weight="bold"
       id="text10"
       lengthAdjust="spacing"
       style="display:inline;fill:#ffffff">FACER</text><path
       id="path484"
       style="display:inline;fill:#ffffff;stroke-width:0.0540177"
       inkscape:label="path484"
       d="M 9.9652582,7 C 9.4803744,7.1150372 9.1777063,7.340745 9,7.9139286 9.0007283,11.942998 9,16.95635 9,20.000582 c 0.2305964,1.265744 2.197229,1.387324 2.560476,0 V 9.6216925 H 22.084842 C 23.24986,9.2939971 23.359025,7.4544195 22.084842,7 Z M 10.296495,7.8365805 A 0.45665028,0.45740359 0 0 1 10.753723,8.292527 0.45665028,0.45740359 0 0 1 10.296495,8.750509 0.45665028,0.45740359 0 0 1 9.8392673,8.292527 0.45665028,0.45740359 0 0 1 10.296495,7.8365805 Z m 3.852906,3.0613545 c -1.67029,0 -1.705294,2.271779 -0.337333,2.589125 2.416041,0 4.832543,7e-6 7.248584,0 0.428822,-0.859984 0.630211,-1.199301 1.324944,-2.589125 z m 0.02439,0.812155 a 0.45665028,0.45740359 0 0 1 0.457228,0.457982 0.45665028,0.45740359 0 0 1 -0.457228,0.457982 0.45665028,0.45740359 0 0 1 -0.455196,-0.457982 0.45665028,0.45740359 0 0 1 0.455196,-0.457982 z m -0.26824,3.01861 c -0.669816,0.133605 -0.842261,0.287713 -1.050608,0.946496 -0.0083,1.729991 -0.01606,3.594814 -0.02439,5.324804 h 2.643792 v -3.625181 c 1.383089,-0.01086 2.233042,0 3.625307,0 0.453436,-0.916969 0.802653,-1.596207 1.324945,-2.644084 z m 0.26824,0.875255 a 0.45665028,0.45740359 0 0 1 0.457228,0.455946 0.45665028,0.45740359 0 0 1 -0.457228,0.457982 0.45665028,0.45740359 0 0 1 -0.455196,-0.457982 0.45665028,0.45740359 0 0 1 0.455196,-0.455946 z" /></g></svg>
