<?xml version="1.0" encoding="UTF-8" standalone="no"?>
<svg
   width="87.25"
   height="28"
   role="img"
   aria-label="IFIXIT"
   version="1.1"
   id="svg14"
   sodipodi:docname="ifixit.svg"
   inkscape:version="1.2.1 (9c6d41e410, 2022-07-14, custom)"
   xmlns:inkscape="http://www.inkscape.org/namespaces/inkscape"
   xmlns:sodipodi="http://sodipodi.sourceforge.net/DTD/sodipodi-0.dtd"
   xmlns="http://www.w3.org/2000/svg"
   xmlns:svg="http://www.w3.org/2000/svg"
   xmlns:rdf="http://www.w3.org/1999/02/22-rdf-syntax-ns#"
   xmlns:cc="http://creativecommons.org/ns#"
   xmlns:dc="http://purl.org/dc/elements/1.1/">
  <defs
     id="defs18" />
  <sodipodi:namedview
     id="namedview16"
     pagecolor="#ffffff"
     bordercolor="#000000"
     borderopacity="0.25"
     inkscape:showpageshadow="2"
     inkscape:pageopacity="0.0"
     inkscape:pagecheckerboard="0"
     inkscape:deskcolor="#d1d1d1"
     showgrid="false"
     inkscape:zoom="5.4866624"
     inkscape:cx="41.008538"
     inkscape:cy="31.531009"
     inkscape:window-width="1280"
     inkscape:window-height="1356"
     inkscape:window-x="1280"
     inkscape:window-y="0"
     inkscape:window-maximized="0"
     inkscape:current-layer="g12" />
  <title
     id="title2">IFIXIT</title>
  <g
     shape-rendering="crispEdges"
     id="g6">
    <rect
       width="87.25"
       height="28"
       fill="#000000"
       id="rect4"
       inkscape:label="rect4"
       style="fill:#0071ba;fill-opacity:1" />
  </g>
  <g
     fill="#fff"
     text-anchor="middle"
     font-family="Verdana,Geneva,DejaVu Sans,sans-serif"
     text-rendering="geometricPrecision"
     font-size="100"
     id="g12">
    <path
       fill="#0071ba"
       d="m 16,7 c -3.879258,0 -7,3.120742 -7,7 0,3.879258 3.120742,7 7,7 3.879258,0 7,-3.120742 7,-7 0,-3.879258 -3.120742,-7 -7,-7 z m 2.595742,3.616484 c 0.175,0.0875 0.35,0.204258 0.466758,0.320743 0.320742,0.320742 0.4375,0.6125 0.35,0.875 l -1.4875,2.041757 c -0.02898,0.0875 -0.02898,0.291485 0,0.379258 l 1.458242,1.983242 c 0.02926,0.0875 0.05824,0.2625 0.02926,0.35 -0.233516,0.4375 -0.642031,0.758243 -1.05,0.904258 -0.0875,0 -0.146016,0 -0.204258,-0.02898 L 16.175,15.983516 C 16.0875,15.925 15.941484,15.925 15.824727,15.954258 l -2.070743,1.516758 c -0.175,0.05824 -0.320742,0.02898 -0.495742,-0.0875 -0.379258,-0.2625 -0.641758,-0.583243 -0.729258,-0.933243 0,-0.116757 0,-0.145742 0.05824,-0.204257 l 1.458242,-2.012227 a 0.46621094,0.46621094 0 0 0 -0.05824,-0.4375 l -1.4,-1.896016 c -0.02899,-0.02898 -0.02899,-0.0875 -0.05824,-0.145742 0.02926,-0.554258 0.4375,-0.845742 0.904258,-1.166758 0.0875,-0.02926 0.233516,-0.02926 0.320742,0 l 2.0125,1.516485 c 0.116758,0.02926 0.321016,0.02926 0.408516,-0.02899 l 2.0125,-1.458789 c 0.145742,-0.05824 0.2625,-0.02898 0.379258,0 z"
       id="path413"
       style="stroke-width:0.273437;fill:#ffffff" />
    <text
       transform="scale(0.1)"
       x="536.25"
       y="175"
       textLength="432.5"
       fill="#ffffff"
       font-weight="bold"
       id="text10"
       lengthAdjust="spacing">IFIXIT</text>
  </g>
  <metadata
     id="metadata1803">
    <rdf:RDF>
      <cc:Work
         rdf:about="">
        <dc:title>IFIXIT</dc:title>
      </cc:Work>
    </rdf:RDF>
  </metadata>
</svg>
