<?xml version="1.0" encoding="UTF-8" standalone="no"?>
<svg
   width="157.25"
   height="28"
   role="img"
   aria-label="STACKEXCHANGE"
   version="1.1"
   id="svg14"
   sodipodi:docname="stackexchange.svg"
   xml:space="preserve"
   inkscape:version="1.2.1 (9c6d41e410, 2022-07-14, custom)"
   xmlns:inkscape="http://www.inkscape.org/namespaces/inkscape"
   xmlns:sodipodi="http://sodipodi.sourceforge.net/DTD/sodipodi-0.dtd"
   xmlns="http://www.w3.org/2000/svg"
   xmlns:svg="http://www.w3.org/2000/svg"
   xmlns:rdf="http://www.w3.org/1999/02/22-rdf-syntax-ns#"
   xmlns:cc="http://creativecommons.org/ns#"
   xmlns:dc="http://purl.org/dc/elements/1.1/"><defs
     id="defs18" /><sodipodi:namedview
     id="namedview16"
     pagecolor="#ffffff"
     bordercolor="#000000"
     borderopacity="0.25"
     inkscape:showpageshadow="2"
     inkscape:pageopacity="0.0"
     inkscape:pagecheckerboard="0"
     inkscape:deskcolor="#d1d1d1"
     showgrid="false"
     inkscape:zoom="4.3052464"
     inkscape:cx="91.283973"
     inkscape:cy="-10.568501"
     inkscape:window-width="1496"
     inkscape:window-height="1233"
     inkscape:window-x="221"
     inkscape:window-y="58"
     inkscape:window-maximized="0"
     inkscape:current-layer="g12" /><title
     id="title2">STACKEXCHANGE</title><g
     shape-rendering="crispEdges"
     id="g6"><rect
       width="157.25"
       height="28"
       fill="#ffffff"
       id="rect4"
       inkscape:label="rect4"
       style="fill:#2f96e8;fill-opacity:1" /></g><g
     fill="#fff"
     text-anchor="middle"
     font-family="Verdana,Geneva,DejaVu Sans,sans-serif"
     text-rendering="geometricPrecision"
     font-size="100"
     id="g12"><path
       d="m 902.49098,646.1 v 42.1 c 0,36.2 -12.2,66.9 -36.7,92.2 -24.5,25.3 -53.9,38 -88.4,38 h -36.4 l -165.8,171.6 V 818.4 h -337.5 c -34.5,0 -63.9,-12.7 -88.4,-38 -24.5,-25.3 -36.7,-56 -36.7,-92.2 v -42.1 z m 0,-208 v 162.7 h -789.8 V 438.1 Z m 0,-209.3 v 162.7 h -789.8 V 228.8 Z m 0,-89.3 v 42.7 h -789.8 v -42.7 c 0,-35.7 12.2,-66.2 36.7,-91.6 24.5,-25.3 53.9,-38 88.4,-38 h 539.8 c 34.5,0 63.9,12.7 88.4,38 24.3,25.4 36.5,55.9 36.5,91.6 z"
       id="path341"
       style="fill:#ffffff"
       transform="matrix(0.01428426,0,0,0.01428426,8.7501527,6.858586)" /><text
       transform="scale(.1)"
       x="886.25"
       y="175"
       textLength="1132.5"
       fill="#333"
       font-weight="bold"
       id="text10"
       style="fill:#ffffff">STACKEXCHANGE</text></g><g
     id="g343"
     transform="matrix(0.01428426,0,0,0.01428426,8.7501527,6.858586)"
     style="fill:#ffffff" /><metadata
     id="metadata12075"><rdf:RDF><cc:Work
         rdf:about=""><dc:title>STACKEXCHANGE</dc:title></cc:Work></rdf:RDF></metadata></svg>
