<?xml version="1.0" encoding="UTF-8" standalone="no"?>
<svg
   width="145.75"
   height="28"
   role="img"
   aria-label="CROWDSOURCE"
   version="1.1"
   id="svg14"
   sodipodi:docname="Crowdsource.svg"
   xml:space="preserve"
   inkscape:version="1.2.1 (9c6d41e410, 2022-07-14, custom)"
   xmlns:inkscape="http://www.inkscape.org/namespaces/inkscape"
   xmlns:sodipodi="http://sodipodi.sourceforge.net/DTD/sodipodi-0.dtd"
   xmlns="http://www.w3.org/2000/svg"
   xmlns:svg="http://www.w3.org/2000/svg"><defs
     id="defs18" /><sodipodi:namedview
     id="namedview16"
     pagecolor="#ffffff"
     bordercolor="#666666"
     borderopacity="1.0"
     inkscape:showpageshadow="2"
     inkscape:pageopacity="0.0"
     inkscape:pagecheckerboard="0"
     inkscape:deskcolor="#d1d1d1"
     showgrid="false"
     inkscape:zoom="8"
     inkscape:cx="74"
     inkscape:cy="15.3125"
     inkscape:window-width="1920"
     inkscape:window-height="1115"
     inkscape:window-x="0"
     inkscape:window-y="0"
     inkscape:window-maximized="1"
     inkscape:current-layer="svg14" /><title
     id="title2">CROWDSOURCE</title><g
     shape-rendering="crispEdges"
     id="g6"><rect
       width="145.75"
       height="28"
       fill="#4285f4"
       id="rect4"
       style="fill:#228af9;fill-opacity:1" /></g><g
     fill="#fff"
     text-anchor="middle"
     font-family="Verdana,Geneva,DejaVu Sans,sans-serif"
     text-rendering="geometricPrecision"
     font-size="100"
     id="g12"><text
       transform="matrix(0.1,0,0,0.1,0,0.07)"
       x="828.75"
       y="175"
       textLength="1017.5"
       fill="#ffffff"
       font-weight="bold"
       id="text10"
       lengthAdjust="spacing">THINGIVERSE</text></g><path
     style="fill:#000000;stroke-width:0.18786"
     id="path1342"
     d="" /><g
     id="g2982"
     inkscape:label="logo"
     transform="matrix(0.54311258,0,0,0.54307144,-3.1860886,6.1090234)"><path
       id="circle2883"
       style="fill:#ffffff;fill-opacity:1;stroke-width:3.62812"
       d="M 35.326172,1.640625 A 12.889299,12.889299 0 0 0 22.4375,14.53125 12.889299,12.889299 0 0 0 35.326172,27.419922 12.889299,12.889299 0 0 0 48.214844,14.53125 12.889299,12.889299 0 0 0 35.326172,1.640625 Z m 0,1.9492188 A 10.940709,10.940709 0 0 1 46.267578,14.53125 10.940709,10.940709 0 0 1 35.326172,25.470703 10.940709,10.940709 0 0 1 24.384766,14.53125 10.940709,10.940709 0 0 1 35.326172,3.5898438 Z"
       inkscape:label="Circle around T" /><path
       id="path1346"
       style="fill:#ffffff;stroke-width:0.0797154"
       d="m 28.979,8.6575 v 3.309 c 1.703427,0 2.664002,-0.01752 4.714,0 -0.01683,3.577786 0.01,7.365303 0,10.874 h 3.266546 L 36.96,11.9665 c 1.5552,-0.01216 3.109828,0.01519 4.665,0 v -3.309 c -4.353734,-0.00635 -8.948729,-0.01844 -12.646,0 z"
       sodipodi:nodetypes="ccccccccc"
       inkscape:label="T" /></g></svg>
