<?xml version="1.0" encoding="UTF-8" standalone="no"?>
<svg
   width="118.25"
   height="28"
   role="img"
   aria-label="TINKERCAD"
   version="1.1"
   id="svg14"
   sodipodi:docname="tinkercad.svg"
   xml:space="preserve"
   inkscape:version="1.2.1 (9c6d41e410, 2022-07-14, custom)"
   xmlns:inkscape="http://www.inkscape.org/namespaces/inkscape"
   xmlns:sodipodi="http://sodipodi.sourceforge.net/DTD/sodipodi-0.dtd"
   xmlns="http://www.w3.org/2000/svg"
   xmlns:svg="http://www.w3.org/2000/svg"><defs
     id="defs18" /><sodipodi:namedview
     id="namedview16"
     pagecolor="#ffffff"
     bordercolor="#666666"
     borderopacity="1.0"
     inkscape:showpageshadow="2"
     inkscape:pageopacity="0.0"
     inkscape:pagecheckerboard="0"
     inkscape:deskcolor="#d1d1d1"
     showgrid="false"
     inkscape:zoom="8.4285714"
     inkscape:cx="57.898305"
     inkscape:cy="17.974576"
     inkscape:window-width="1920"
     inkscape:window-height="1115"
     inkscape:window-x="0"
     inkscape:window-y="0"
     inkscape:window-maximized="1"
     inkscape:current-layer="svg14" /><title
     id="title2">TINKERCAD</title><g
     shape-rendering="crispEdges"
     id="g6"
     style="fill:#74bde6;fill-opacity:1"><rect
       width="118.25"
       height="28"
       fill="#f46d01"
       id="rect4"
       style="fill:#74bde6;fill-opacity:1" /></g><g
     fill="#fff"
     text-anchor="middle"
     font-family="Verdana,Geneva,DejaVu Sans,sans-serif"
     text-rendering="geometricPrecision"
     font-size="100"
     id="g12"><text
       transform="scale(0.1)"
       x="691.25"
       y="175"
       textLength="742.5"
       fill="#ffffff"
       font-weight="bold"
       id="text10"
       lengthAdjust="spacing">TINKERCAD</text><g
       id="g622"
       transform="matrix(0.02793854,0,0,0.02781641,9,7)"><g
         id="Layer_3"
         style="display:inline">
</g><g
         id="Layer_1"
         style="display:inline">
	<g
   id="g480">
		<rect
   class="st2"
   width="152.2"
   height="152.3"
   id="rect462"
   x="0"
   y="0"
   style="fill:#ffffff" />
		<rect
   x="171.89999"
   class="st3"
   width="157.3"
   height="152.3"
   id="rect464"
   y="0"
   style="fill:#ffffff" />
		<rect
   x="348.79999"
   class="st4"
   width="152.3"
   height="152.3"
   id="rect466"
   y="0"
   style="fill:#ffffff" />
		<rect
   y="173.5"
   class="st5"
   width="152.2"
   height="157.3"
   id="rect468"
   x="0"
   style="fill:#ffffff" />
		<rect
   x="171.89999"
   y="173.5"
   class="st6"
   width="157.3"
   height="157.3"
   id="rect470"
   style="fill:#ffffff" />
		<rect
   x="348.79999"
   y="173.5"
   class="st7"
   width="152.3"
   height="157.3"
   id="rect472"
   style="fill:#ffffff" />
		<rect
   y="351"
   class="st8"
   width="152.2"
   height="152.3"
   id="rect474"
   x="0"
   style="fill:#ffffff" />
		<rect
   x="171.89999"
   y="351"
   class="st12"
   width="157.3"
   height="152.3"
   id="rect476"
   style="fill:#ffffff" />
		<rect
   x="348.79999"
   y="351"
   class="st13"
   width="152.3"
   height="152.3"
   id="rect478"
   style="fill:#ffffff" />
	</g>
	<g
   id="g500"
   style="fill:#74bde6;fill-opacity:1">
		<polygon
   class="st11"
   points="65,125.7 91,125.7 91,48.7 120,48.7 120,26.7 35,26.7 35,48.7 65,48.7 "
   id="polygon482"
   style="fill:#74bde6;fill-opacity:1" />
		<rect
   x="238"
   y="26.700001"
   class="st11"
   width="26"
   height="99"
   id="rect484"
   style="fill:#74bde6;fill-opacity:1" />
		<polygon
   class="st11"
   points="415,26.7 380,26.7 380,125.7 404,125.7 404,58.3 434.4,125.7 469,125.7 469,26.7 445,26.7 445,94.8 "
   id="polygon486"
   style="fill:#74bde6;fill-opacity:1" />
		<polygon
   class="st11"
   points="34,300.7 60,300.7 60,260.6 91.9,300.7 124.6,300.7 79.5,248.3 121.4,201.7 89.9,201.7 60,238.1 60,201.7 34,201.7 "
   id="polygon488"
   style="fill:#74bde6;fill-opacity:1" />
		<polygon
   class="st11"
   points="279,240.7 240,240.7 240,221.7 280,221.7 280,201.7 214,201.7 214,300.7 282,300.7 282,281.7 240,281.7 240,259.7 279,259.7 "
   id="polygon490"
   style="fill:#74bde6;fill-opacity:1" />
		<path
   class="st11"
   d="m 459,229 c 0,-17 -13.3,-27.3 -35.6,-27.3 H 384 v 99 h 25 v -39 h 5.2 c 8.6,0 10.4,2.7 14.5,13.7 l 9,25.3 h 28 L 452.4,267 c -2.8,-6.9 -5.5,-11.6 -10,-14.6 10.7,-4 16.6,-12.3 16.6,-23.4 z m -26,2 c 0,9.8 -9.3,11.8 -17.1,11.8 H 409 v -22 h 7.5 c 11.9,-0.1 16.5,2.8 16.5,10.2 z"
   id="path492"
   style="fill:#74bde6;fill-opacity:1" />
		<path
   class="st11"
   d="m 105.8,453.3 c -5.5,2.5 -11.9,3.7 -19.1,3.7 -18.7,0 -29.9,-11.5 -29.9,-30.7 0,-18.4 12.2,-30.7 30.3,-30.7 6.1,0 13,1.3 18.4,3.6 l 3.3,1.4 1.1,-21.1 -1.9,-0.6 c -7.4,-2.2 -16.4,-3.5 -24.2,-3.5 -31.2,0 -53.9,21.4 -53.9,50.9 0.1,15.7 5.3,28.7 15.3,37.7 9.5,8.6 22.9,13.2 38.7,13.2 9.1,0 17.9,-1.5 24.7,-4.1 l 1.7,-0.7 -1.2,-20.6 z"
   id="path494"
   style="fill:#74bde6;fill-opacity:1" />
		<path
   class="st11"
   d="m 235.9,376.7 -37.7,99 h 25.9 l 8.5,-24 H 269 l 8.3,24 h 27.1 l -37.8,-99 z m 27,56 H 238.7 L 251,399.6 Z"
   id="path496"
   style="fill:#74bde6;fill-opacity:1" />
		<path
   class="st11"
   d="M 416.6,376.7 H 381 v 99 h 33 c 34.2,0 54.7,-19 54.7,-50.8 0,-31 -18.5,-48.2 -52.1,-48.2 z m 25.3,48.2 c 0,20.5 -10.7,31.8 -30.9,31.8 h -4 v -61 h 6.4 c 18.4,0 28.5,10.7 28.5,29.2 z"
   id="path498"
   style="fill:#74bde6;fill-opacity:1" />
	</g>
	
</g></g></g><style
     type="text/css"
     id="style413">
	.st0{display:none;}
	.st1{display:inline;}
	.st2{fill:#FB4725;}
	.st3{fill:#FF7B39;}
	.st4{fill:#FC9B3A;}
	.st5{fill:#22B45C;}
	.st6{fill:#91CA06;}
	.st7{fill:#D6D230;}
	.st8{fill:#0066B6;}
	.st9{fill:#20B1EE;}
	.st10{fill:#71CFFE;}
	.st11{fill:#FFFFFF;}
	.st12{fill:#429ACC;}
	.st13{fill:#6CBADD;}
	.st14{fill:#595959;}
</style></svg>
