<?xml version="1.0" encoding="UTF-8" standalone="no"?>
<svg
   width="87.25"
   height="28"
   role="img"
   aria-label="TRAKT"
   version="1.1"
   id="svg14"
   sodipodi:docname="trakt.svg"
   xml:space="preserve"
   inkscape:version="1.2.1 (9c6d41e410, 2022-07-14, custom)"
   xmlns:inkscape="http://www.inkscape.org/namespaces/inkscape"
   xmlns:sodipodi="http://sodipodi.sourceforge.net/DTD/sodipodi-0.dtd"
   xmlns="http://www.w3.org/2000/svg"
   xmlns:svg="http://www.w3.org/2000/svg"><defs
     id="defs18" /><sodipodi:namedview
     id="namedview16"
     pagecolor="#ffffff"
     bordercolor="#666666"
     borderopacity="1.0"
     inkscape:showpageshadow="2"
     inkscape:pageopacity="0.0"
     inkscape:pagecheckerboard="0"
     inkscape:deskcolor="#d1d1d1"
     showgrid="false"
     inkscape:zoom="11.9198"
     inkscape:cx="37.752311"
     inkscape:cy="19.085891"
     inkscape:window-width="1920"
     inkscape:window-height="1115"
     inkscape:window-x="0"
     inkscape:window-y="0"
     inkscape:window-maximized="1"
     inkscape:current-layer="svg14" /><title
     id="title2">TRAKT</title><g
     shape-rendering="crispEdges"
     id="g6"
     style="fill:#ed1c24;fill-opacity:1"><rect
       width="87.25"
       height="28"
       fill="#fa7343"
       id="rect4"
       style="fill:#ed1c24;fill-opacity:1" /></g><g
     fill="#fff"
     text-anchor="middle"
     font-family="Verdana,Geneva,DejaVu Sans,sans-serif"
     text-rendering="geometricPrecision"
     font-size="100"
     id="g12"><text
       transform="scale(0.1)"
       x="536.25"
       y="175"
       textLength="432.5"
       fill="#ffffff"
       font-weight="bold"
       id="text10"
       lengthAdjust="spacing">TRAKT</text><g
       id="g425"
       transform="matrix(0.09668508,0,0,0.09668508,9,7)"
       style="display:inline;fill:#ffffff">
	<path
   fill="#ed2224"
   d="m 29.5,111.8 c 10.6,11.6 25.9,18.8 42.9,18.8 8.7,0 16.9,-1.9 24.3,-5.3 L 56.3,85 Z"
   id="path413"
   style="fill:#ffffff" />
	<path
   fill="#ed2224"
   d="M 56.1,60.6 25.5,91.1 21.4,87 53.6,54.8 v 0 L 91.2,17.2 c -5.9,-2 -12.2,-3.1 -18.8,-3.1 -32.2,0 -58.3,26.1 -58.3,58.3 0,13.1 4.3,25.2 11.7,35 l 30.5,-30.5 2.1,2 43.7,43.7 c 0.9,-0.5 1.7,-1 2.5,-1.6 L 56.3,72.7 27,102 22.9,97.9 56.3,64.5 l 2.1,2 51,50.9 c 0.8,-0.6 1.5,-1.3 2.2,-1.9 l -55,-55 z"
   id="path415"
   style="fill:#ffffff" />
	<path
   fill="#ed1c24"
   d="m 115.7,111.4 c 9.3,-10.3 15,-24 15,-39 C 130.7,49 116.9,28.9 97.1,19.6 L 60.4,56.2 Z M 74.5,66.8 70.4,62.7 99.3,33.8 l 4.1,4.1 z M 101.9,27.1 68.6,60.4 64.5,56.3 97.8,23 Z"
   id="path417"
   style="fill:#ffffff" />
	<g
   id="g423"
   style="display:inline;fill:#ffffff"
   inkscape:label="ring">
		<g
   id="g421"
   style="fill:#ffffff">
			<path
   fill="#ed2224"
   d="M 72.4,144.8 C 32.5,144.8 0,112.3 0,72.4 0,32.5 32.5,0 72.4,0 c 39.9,0 72.4,32.5 72.4,72.4 0,39.9 -32.5,72.4 -72.4,72.4 z M 72.4,7.3 C 36.5,7.3 7.3,36.5 7.3,72.4 c 0,35.9 29.2,65.1 65.1,65.1 35.9,0 65.1,-29.2 65.1,-65.1 0,-35.9 -29.2,-65.1 -65.1,-65.1 z"
   id="path419"
   style="fill:#ffffff" />
		</g>
	</g>
</g></g></svg>
